<svg width="56" height="56" viewBox="0 0 56 56" fill="none" xmlns="http://www.w3.org/2000/svg">
<rect y="-0.000244141" width="56" height="56" rx="28" fill="#FFF1DA"/>
<path fill-rule="evenodd" clip-rule="evenodd" d="M29.7667 34.7664C29.2979 35.2346 28.6625 35.4975 28 35.4975C27.3375 35.4975 26.7021 35.2346 26.2334 34.7664L16.8034 25.3397C16.3346 24.8707 16.0713 24.2347 16.0715 23.5716C16.0716 22.9085 16.3352 22.2727 16.8042 21.8039C17.2732 21.3351 17.9092 21.0719 18.5723 21.072C19.2354 21.0722 19.8712 21.3357 20.34 21.8047L28 29.4647L35.66 21.8047C36.1313 21.3491 36.7627 21.0968 37.4182 21.1022C38.0737 21.1076 38.7009 21.3702 39.1646 21.8335C39.6283 22.2968 39.8916 22.9237 39.8976 23.5792C39.9036 24.2347 39.6519 24.8663 39.1967 25.3381L29.7684 34.7681L29.7667 34.7664Z" fill="black"/>
</svg>
