<svg width="29" height="29" viewBox="0 0 29 29" fill="none" xmlns="http://www.w3.org/2000/svg">
<path d="M10.0807 10.4348H4.83068C4.52126 10.4348 4.22452 10.3119 4.00573 10.0931C3.78693 9.87427 3.66402 9.57753 3.66402 9.26811V4.01811C3.66402 3.70869 3.78693 3.41194 4.00573 3.19315C4.22452 2.97436 4.52126 2.85144 4.83068 2.85144C5.1401 2.85144 5.43685 2.97436 5.65564 3.19315C5.87443 3.41194 5.99735 3.70869 5.99735 4.01811V8.10144H10.0807C10.3901 8.10144 10.6868 8.22436 10.9056 8.44315C11.1244 8.66194 11.2473 8.95869 11.2473 9.26811C11.2473 9.57753 11.1244 9.87427 10.9056 10.0931C10.6868 10.3119 10.3901 10.4348 10.0807 10.4348Z" fill="#28B30E"/>
<path d="M24.5182 15.6848C24.2088 15.6848 23.912 15.5619 23.6932 15.3431C23.4744 15.1243 23.3515 14.8275 23.3515 14.5181C23.3524 12.4642 22.6754 10.4675 21.4255 8.83773C20.1755 7.20796 18.4227 6.03631 16.4388 5.50458C14.455 4.97285 12.3511 5.11078 10.4536 5.89696C8.55619 6.68314 6.97128 8.07361 5.94484 9.8526C5.78983 10.1204 5.53477 10.3157 5.23579 10.3954C4.93681 10.4752 4.6184 10.4329 4.35059 10.2779C4.08279 10.1228 3.88754 9.86778 3.80779 9.5688C3.72804 9.26982 3.77033 8.95141 3.92534 8.6836C5.20897 6.46021 7.19048 4.72259 9.56246 3.74031C11.9344 2.75802 14.5643 2.58599 17.044 3.25089C19.5237 3.91579 21.7147 5.38047 23.2771 7.41769C24.8394 9.4549 25.6858 11.9508 25.6848 14.5181C25.6848 14.8275 25.5619 15.1243 25.3431 15.3431C25.1243 15.5619 24.8276 15.6848 24.5182 15.6848ZM23.2057 26.1848C22.8963 26.1848 22.5995 26.0619 22.3807 25.8431C22.1619 25.6243 22.039 25.3275 22.039 25.0181V20.9348H17.9557C17.6463 20.9348 17.3495 20.8119 17.1307 20.5931C16.9119 20.3743 16.789 20.0775 16.789 19.7681C16.789 19.4587 16.9119 19.1619 17.1307 18.9431C17.3495 18.7244 17.6463 18.6014 17.9557 18.6014H23.2057C23.5151 18.6014 23.8118 18.7244 24.0306 18.9431C24.2494 19.1619 24.3723 19.4587 24.3723 19.7681V25.0181C24.3723 25.3275 24.2494 25.6243 24.0306 25.8431C23.8118 26.0619 23.5151 26.1848 23.2057 26.1848Z" fill="#28B30E"/>
<path d="M14.0182 26.1848C10.9249 26.1817 7.95927 24.9515 5.77202 22.7643C3.58476 20.577 2.35461 17.6114 2.35152 14.5181C2.35152 14.2087 2.47443 13.9119 2.69323 13.6931C2.91202 13.4744 3.20876 13.3514 3.51818 13.3514C3.8276 13.3514 4.12435 13.4744 4.34314 13.6931C4.56193 13.9119 4.68485 14.2087 4.68485 14.5181C4.68396 16.572 5.361 18.5687 6.61091 20.1985C7.86081 21.8282 9.61369 22.9999 11.5975 23.5316C13.5814 24.0634 15.6853 23.9254 17.5827 23.1393C19.4802 22.3531 21.0651 20.9626 22.0915 19.1836C22.1683 19.051 22.2704 18.9348 22.3921 18.8417C22.5137 18.7486 22.6525 18.6803 22.8006 18.6408C22.9486 18.6013 23.103 18.5914 23.2549 18.6115C23.4067 18.6317 23.5532 18.6816 23.6858 18.7584C23.8184 18.8351 23.9346 18.9372 24.0277 19.0589C24.1208 19.1806 24.1891 19.3194 24.2286 19.4674C24.2681 19.6154 24.278 19.7698 24.2578 19.9217C24.2377 20.0736 24.1878 20.22 24.111 20.3526C23.0851 22.122 21.6134 23.5916 19.8425 24.6149C18.0716 25.6382 16.0635 26.1795 14.0182 26.1848Z" fill="#28B30E"/>
</svg>

