<svg width="29" height="29" viewBox="0 0 29 29" fill="none" xmlns="http://www.w3.org/2000/svg">
<g clip-path="url(#clip0_12_963)">
<path fill-rule="evenodd" clip-rule="evenodd" d="M19.7225 2.21808C20.0885 0.548082 22.4705 0.538082 22.8505 2.20808L22.8705 2.28808L22.9045 2.44208C23.3445 4.31008 24.8545 5.73808 26.7485 6.06608C28.4925 6.37008 28.4925 8.87408 26.7485 9.17808C25.8185 9.341 24.9573 9.77456 24.2725 10.4245C23.5877 11.0744 23.1098 11.9119 22.8985 12.8321L22.8505 13.0381C22.4705 14.7061 20.0905 14.6981 19.7225 13.0241L19.6825 12.8481C19.4804 11.9244 19.0078 11.0819 18.325 10.428C17.6421 9.77397 16.78 9.33816 15.8485 9.17608C14.1085 8.87208 14.1085 6.37208 15.8485 6.07008C16.7775 5.90876 17.6377 5.47515 18.3199 4.82425C19.0022 4.17336 19.4757 3.3345 19.6805 2.41408L19.7085 2.28608L19.7225 2.21808ZM17.5605 13.3141C17.4528 12.8141 17.1989 12.3573 16.831 12.0019C16.4631 11.6465 15.9979 11.4085 15.4945 11.3181V25.7481C16.1553 26.6029 17.0347 27.2633 18.0399 27.6594C19.0451 28.0555 20.1386 28.1727 21.2049 27.9985C22.2712 27.8244 23.2706 27.3653 24.0975 26.67C24.9244 25.9746 25.5481 25.0687 25.9025 24.0481C25.3698 23.996 24.8465 23.8729 24.3465 23.6821C23.1565 23.2341 21.8625 22.3521 20.8005 20.8101C20.6125 20.5369 20.5406 20.2002 20.6008 19.8741C20.661 19.548 20.8483 19.2591 21.1215 19.0711C21.3947 18.883 21.7314 18.8112 22.0575 18.8714C22.3836 18.9316 22.6725 19.1189 22.8605 19.3921C23.6245 20.5021 24.5005 21.0701 25.2265 21.3421C25.5945 21.4821 25.9225 21.5421 26.1785 21.5621L26.2245 21.5661C27.4645 20.2181 28.2445 17.6101 28.2445 15.4321C28.2445 13.9641 27.8905 12.5161 27.2785 11.2881L27.1205 11.3181C26.0805 11.4981 25.2525 12.2861 25.0185 13.3141L24.9705 13.5181C24.0745 17.4521 18.4605 17.4281 17.5985 13.4861L17.5605 13.3141ZM12.9945 9.74808C12.5851 9.11423 12.3673 8.37568 12.3673 7.62108C12.3673 6.86649 12.5851 6.12793 12.9945 5.49408V4.45408C12.3 3.63778 11.3718 3.05425 10.3351 2.78231C9.2984 2.51036 8.20324 2.56309 7.19748 2.93338C6.19172 3.30367 5.32382 3.97368 4.71098 4.85294C4.09813 5.73219 3.76987 6.77833 3.77051 7.85008V7.85408C3.84851 8.63408 4.16651 9.21408 4.53451 9.63408C4.99251 10.1561 5.47451 10.3701 5.58851 10.3941C5.74872 10.4305 5.9002 10.498 6.0343 10.593C6.16839 10.6879 6.28248 10.8083 6.37005 10.9473C6.45761 11.0863 6.51694 11.2412 6.54464 11.4031C6.57235 11.5651 6.56788 11.7309 6.53151 11.8911C6.49513 12.0513 6.42755 12.2028 6.33264 12.3369C6.23772 12.471 6.11732 12.5851 5.97831 12.6726C5.8393 12.7602 5.6844 12.8195 5.52247 12.8472C5.36053 12.8749 5.19472 12.8705 5.03451 12.8341C4.31451 12.6681 3.39451 12.1241 2.65451 11.2841C2.35445 10.9419 2.09722 10.5645 1.88851 10.1601C0.868507 11.5701 0.244507 13.4841 0.244507 15.4321C0.244507 16.9021 0.600507 18.5681 1.21051 19.9081C1.37051 19.7267 1.54384 19.5641 1.73051 19.4201C1.85823 19.3097 2.00698 19.2264 2.16777 19.1751C2.32857 19.1238 2.49809 19.1056 2.66612 19.1216C2.83414 19.1376 2.99718 19.1875 3.14542 19.2682C3.29365 19.3489 3.424 19.4588 3.52861 19.5912C3.63322 19.7237 3.70993 19.876 3.7541 20.0389C3.79827 20.2018 3.80899 20.3719 3.78562 20.5391C3.76225 20.7062 3.70527 20.8669 3.61811 21.0115C3.53096 21.156 3.41543 21.2814 3.27851 21.3801C2.92251 21.6621 2.55051 22.2681 2.32251 22.9701C2.49617 24.1322 3.00755 25.2176 3.79307 26.0914C4.5786 26.9652 5.60362 27.5889 6.74072 27.8849C7.87781 28.1809 9.07683 28.1361 10.1887 27.7562C11.3006 27.3763 12.2763 26.678 12.9945 25.7481V18.4081C12.1894 19.0595 11.214 19.4656 10.1845 19.5781C10.0213 19.5963 9.85604 19.5823 9.69825 19.5367C9.54046 19.4911 9.39319 19.4148 9.26486 19.3123C9.13653 19.2098 9.02965 19.083 8.95032 18.9392C8.87099 18.7954 8.82076 18.6373 8.80251 18.4741C8.78425 18.3108 8.79833 18.1456 8.84393 17.9878C8.88953 17.83 8.96577 17.6828 9.06828 17.5544C9.1708 17.4261 9.29759 17.3192 9.44141 17.2399C9.58523 17.1606 9.74327 17.1103 9.90651 17.0921C10.9245 16.9801 11.6645 16.3941 12.1925 15.6241C12.7285 14.8441 12.9605 13.9881 12.9945 13.5781V9.74808Z" fill="#28B30E"/>
</g>
<defs>
<clipPath id="clip0_12_963">
<rect width="28" height="28" fill="white" transform="translate(0.244507 0.518066)"/>
</clipPath>
</defs>
</svg>

