<svg width="29" height="29" viewBox="0 0 29 29" fill="none" xmlns="http://www.w3.org/2000/svg">
<path d="M25.2182 7.71806C25.2183 8.29196 25.0774 8.8571 24.8077 9.36369C24.538 9.87028 24.1479 10.3028 23.6717 10.6231C23.1955 10.9434 22.6478 11.1417 22.077 11.2006C21.5061 11.2594 20.9295 11.1769 20.398 10.9605L18.6032 13.6527C18.9445 13.9975 19.2103 14.4094 19.3839 14.8624C19.5575 15.3155 19.635 15.7996 19.6116 16.2842C19.5881 16.7687 19.4641 17.2431 19.2476 17.6772C19.031 18.1114 18.7266 18.4957 18.3535 18.8059C17.9805 19.1161 17.5471 19.3454 17.0808 19.4791C16.6145 19.6129 16.1254 19.6483 15.6447 19.583C15.164 19.5177 14.7021 19.3532 14.2883 19.0999C13.8746 18.8466 13.518 18.5101 13.2412 18.1117L9.74678 19.6097C9.79345 19.8393 9.81725 20.0754 9.81818 20.3181C9.81776 21.1547 9.51763 21.9635 8.9722 22.598C8.42676 23.2324 7.67211 23.6505 6.84498 23.7764C6.01785 23.9023 5.17297 23.7278 4.46345 23.2844C3.75392 22.8411 3.22669 22.1582 2.9773 21.3596C2.7279 20.5609 2.77284 19.6994 3.10397 18.931C3.4351 18.1627 4.03052 17.5384 4.78232 17.1713C5.53412 16.8041 6.39257 16.7184 7.20211 16.9297C8.01165 17.141 8.71872 17.6353 9.19518 18.3231L12.6896 16.8251C12.5609 16.2037 12.6035 15.5591 12.8129 14.9601C13.0223 14.3612 13.3906 13.8304 13.8784 13.4246C14.3662 13.0188 14.9551 12.7532 15.5821 12.6563C16.2092 12.5593 16.8508 12.6347 17.4384 12.8743L19.2332 10.1835C18.8283 9.77525 18.5302 9.27358 18.3653 8.72281C18.2004 8.17203 18.1736 7.58911 18.2875 7.02555C18.4014 6.462 18.6523 5.93518 19.0182 5.49165C19.384 5.04812 19.8535 4.70155 20.3851 4.48257C20.9167 4.26358 21.4941 4.17893 22.0662 4.23609C22.6383 4.29326 23.1875 4.49047 23.6652 4.81031C24.143 5.13015 24.5346 5.56276 24.8055 6.06991C25.0763 6.57705 25.2181 7.14311 25.2182 7.71806Z" fill="#28B30E"/>
</svg>

