<svg width="29" height="29" viewBox="0 0 29 29" fill="none" xmlns="http://www.w3.org/2000/svg">
<path fill-rule="evenodd" clip-rule="evenodd" d="M6.52903 4.54789C7.17981 3.88764 8.04901 3.51807 9.21326 3.51807C10.2215 3.51807 11.069 3.91395 11.6529 4.59032C12.2242 5.25204 12.4945 6.12327 12.4945 7.01807V8.92168C12.9566 8.83511 13.5416 8.76807 14.2445 8.76807C14.9474 8.76807 15.5324 8.83511 15.9945 8.92168V7.01807C15.9945 6.12327 16.2648 5.25204 16.8361 4.59032C17.42 3.91395 18.2675 3.51807 19.2758 3.51807C20.44 3.51807 21.3092 3.88764 21.96 4.54789C22.5655 5.16219 22.9195 5.97173 23.2064 6.69574L23.2412 6.78718L26.9713 16.7357C26.9713 16.7357 27.1129 17.1353 27.1307 17.1946C27.2896 17.7254 27.37 18.2765 27.3695 18.8306C27.3695 21.9717 24.8231 24.5181 21.682 24.5181C18.5409 24.5181 15.9945 21.9717 15.9945 18.8306V15.5241L15.9923 15.5236C15.6166 15.4304 15.031 15.3306 14.2445 15.3306C13.458 15.3306 12.8725 15.4304 12.4967 15.5236L12.4945 15.5241V18.8306C12.4945 21.9717 9.94815 24.5181 6.80701 24.5181C3.66587 24.5181 1.11951 21.9717 1.11951 18.8306C1.11951 18.2619 1.20296 17.7127 1.35833 17.1945C1.3666 17.1566 1.37758 17.1189 1.39125 17.0814C1.43092 16.9653 1.47311 16.8499 1.5178 16.7356L5.28259 6.69574C5.56948 5.97173 5.92358 5.16219 6.52903 4.54789ZM17.7445 18.8254C17.7473 16.6531 19.5091 14.8931 21.682 14.8931C23.343 14.8931 24.7638 15.9215 25.3422 17.3763L25.4165 17.5792C25.5514 17.9826 25.62 18.4052 25.6195 18.8306C25.6195 21.0052 23.8566 22.7681 21.682 22.7681C19.5081 22.7681 17.7457 21.0064 17.7445 18.8328V18.8306M6.80701 14.8931C5.14609 14.8931 3.72537 15.9215 3.14677 17.3762L3.07251 17.5793C2.93761 17.9827 2.86906 18.4052 2.86951 18.8306C2.86951 21.0052 4.63241 22.7681 6.80701 22.7681C8.9816 22.7681 10.7445 21.0052 10.7445 18.8306C10.7445 16.656 8.9816 14.8931 6.80701 14.8931Z" fill="#28B30E"/>
</svg>
