<svg width="24" height="15" viewBox="0 0 24 15" fill="none" xmlns="http://www.w3.org/2000/svg">
<path fill-rule="evenodd" clip-rule="evenodd" d="M13.7667 13.7664C13.2979 14.2346 12.6625 14.4975 12 14.4975C11.3375 14.4975 10.7021 14.2346 10.2334 13.7664L0.803351 4.33973C0.33458 3.87074 0.071316 3.23474 0.0714722 2.57164C0.0716285 1.90855 0.335192 1.27267 0.804184 0.8039C1.27317 0.33513 1.90918 0.0718653 2.57227 0.0720216C3.23537 0.0721778 3.87125 0.335742 4.34002 0.804733L12 8.46473L19.66 0.804733C20.1313 0.349111 20.7627 0.0968236 21.4182 0.102209C22.0737 0.107593 22.7009 0.37022 23.1646 0.833523C23.6283 1.29683 23.8916 1.92374 23.8976 2.57923C23.9036 3.23472 23.6519 3.86635 23.1967 4.33807L13.7684 13.7681L13.7667 13.7664Z" fill="black"/>
</svg>
